<svg version="1.1" viewBox="0.0 0.0 960.0 540.0" fill="none" stroke="none" stroke-linecap="square" stroke-miterlimit="10" xmlns:xlink="http://www.w3.org/1999/xlink" xmlns="http://www.w3.org/2000/svg"><clipPath id="g3c4f6add670_2_59.0"><path d="m0 0l960.0 0l0 540.0l-960.0 0l0 -540.0z" clip-rule="nonzero"/></clipPath><g clip-path="url(#g3c4f6add670_2_59.0)"><path fill="#ffffff" d="m0 0l960.0 0l0 540.0l-960.0 0z" fill-rule="evenodd"/><path fill="#000000" d="m732.4278 492.23752l0 -444.4724l122.64569 0l0 444.4724z" fill-rule="evenodd"/><path fill="#000000" d="m580.2874 277.35303l143.52753 92.94226l0 122.351685l-469.41205 0l187.06036 -124.706024l91.763794 -1.1758423l-43.530212 -29.412079z" fill-rule="evenodd"/><path fill="#cc0000" d="m236.53412 492.2979l486.92914 -323.26038l0 -121.21208l-486.92914 323.26035z" fill-rule="evenodd"/><path fill="#000000" d="m380.06168 262.64697l-143.52756 -92.942245l0 -122.35171l469.41205 0l-187.06036 124.70603l-91.76376 1.1758575l43.53018 29.412079z" fill-rule="evenodd"/><path fill="#000000" d="m104.926506 492.23752l0 -444.4724l122.64567 0l0 444.4724z" fill-rule="evenodd"/></g></svg>